<svg width="150" height="150" viewBox="0 0 150 150" fill="none" xmlns="http://www.w3.org/2000/svg">
<g clip-path="url(#clip0)">
<path fill-rule="evenodd" clip-rule="evenodd" d="M63.531 136.862L67.3256 130.315C68.1325 128.922 69.5282 128.118 71.142 128.118H78.7094C80.3232 128.118 81.719 128.922 82.5259 130.315L86.3205 136.862C87.1274 138.254 87.1274 139.864 86.3205 141.256L82.5259 147.803C81.719 149.195 80.3232 150 78.7094 150H71.142C69.5282 150 68.1325 149.195 67.3256 147.803L63.531 141.256C62.7241 139.864 62.7241 138.254 63.531 136.862Z" fill="#16AC59"/>
<path fill-rule="evenodd" clip-rule="evenodd" d="M63.531 111.15L67.3256 104.603C68.1325 103.211 69.5282 102.406 71.142 102.406H78.7094C80.3232 102.406 81.719 103.211 82.5259 104.603L86.3205 111.15C87.1274 112.543 87.1274 114.152 86.3205 115.544L82.5259 122.07C81.719 123.462 80.3232 124.267 78.7094 124.267H71.142C69.5282 124.267 68.1325 123.462 67.3256 122.07L63.531 115.544C62.7241 114.152 62.7241 112.564 63.531 111.15Z" fill="#16AC59"/>
<path fill-rule="evenodd" clip-rule="evenodd" d="M63.531 34.4556L67.3256 27.9084C68.1325 26.5162 69.5282 25.7114 71.142 25.7114H78.7094C80.3232 25.7114 81.719 26.5162 82.5259 27.9084L86.3205 34.4556C87.1274 35.8477 87.1274 37.4574 86.3205 38.8495L82.5041 45.375C81.6972 46.7671 80.3014 47.572 78.6876 47.572H71.1202C69.5064 47.572 68.1107 46.7671 67.3038 45.375L63.531 38.8495C62.7241 37.4574 62.7241 35.8477 63.531 34.4556Z" fill="#16AC59"/>
<path fill-rule="evenodd" clip-rule="evenodd" d="M63.531 8.74421L67.3256 2.19693C68.1325 0.804815 69.5282 0 71.142 0H78.7094C80.3232 0 81.719 0.804815 82.5259 2.19693L86.3205 8.74421C87.1274 10.1363 87.1274 11.746 86.3205 13.1381L82.5259 19.6853C81.719 21.0775 80.3232 21.8823 78.7094 21.8823H71.142C69.5282 21.8823 68.1325 21.0775 67.3256 19.6853L63.531 13.1381C62.7241 11.746 62.7241 10.1581 63.531 8.74421Z" fill="#16AC59"/>
<path fill-rule="evenodd" clip-rule="evenodd" d="M41.769 124.572L45.2583 118.547C45.9998 117.263 47.2865 116.524 48.7694 116.524H55.7481C57.231 116.524 58.5177 117.263 59.2592 118.547L62.7485 124.572C63.49 125.855 63.49 127.335 62.7485 128.618L59.2592 134.643C58.5177 135.927 57.231 136.666 55.7481 136.666H48.7694C47.2865 136.666 45.9998 135.927 45.2583 134.643L41.769 128.618C41.0275 127.335 41.0275 125.855 41.769 124.572Z" fill="#16AC59"/>
<path fill-rule="evenodd" clip-rule="evenodd" d="M41.769 22.1658L45.2583 16.1406C45.9998 14.8572 47.2865 14.1177 48.7694 14.1177H55.7481C57.231 14.1177 58.5177 14.8572 59.2592 16.1406L62.7485 22.1658C63.49 23.4492 63.49 24.9283 62.7485 26.2116L59.2592 32.2369C58.5177 33.5202 57.231 34.2598 55.7481 34.2598H48.7694C47.2865 34.2598 45.9998 33.5202 45.2583 32.2369L41.769 26.2116C41.0275 24.9283 41.0275 23.4709 41.769 22.1658Z" fill="#16AC59"/>
<path fill-rule="evenodd" clip-rule="evenodd" d="M20.8525 112.413L23.6658 107.563C24.2764 106.518 25.3014 105.931 26.5008 105.931H32.1273C33.3268 105.931 34.3517 106.518 34.9624 107.563L37.7756 112.413C38.3862 113.457 38.3862 114.632 37.7756 115.676L34.9624 120.527C34.3517 121.571 33.3268 122.158 32.1273 122.158H26.5008C25.3014 122.158 24.2764 121.571 23.6658 120.527L20.8525 115.676C20.2419 114.632 20.2419 113.436 20.8525 112.413Z" fill="#16AC59"/>
<path fill-rule="evenodd" clip-rule="evenodd" d="M20.2868 86.5943L23.2745 81.4174C23.907 80.308 25.0192 79.6772 26.2841 79.6772H32.2813C33.568 79.6772 34.6584 80.308 35.2908 81.4174L38.2785 86.5943C38.9109 87.7036 38.9109 88.9652 38.2785 90.0746L35.2908 95.2515C34.6584 96.3608 33.5462 96.9916 32.2813 96.9916H26.2841C24.9974 96.9916 23.907 96.3608 23.2745 95.2515L20.2868 90.0746C19.6544 88.9652 19.6544 87.7036 20.2868 86.5943Z" fill="#16AC59"/>
<path fill-rule="evenodd" clip-rule="evenodd" d="M20.2868 61.1007L23.2745 55.9237C23.907 54.8144 25.0192 54.1836 26.2841 54.1836H32.2813C33.568 54.1836 34.6584 54.8144 35.2908 55.9237L38.2785 61.1007C38.9109 62.21 38.9109 63.4716 38.2785 64.5809L35.2908 69.7579C34.6584 70.8672 33.5462 71.498 32.2813 71.498H26.2841C24.9974 71.498 23.907 70.8672 23.2745 69.7579L20.2868 64.5809C19.6544 63.4716 19.6544 62.1882 20.2868 61.1007Z" fill="#16AC59"/>
<path fill-rule="evenodd" clip-rule="evenodd" d="M20.8525 35.4986L23.6658 30.648C24.2764 29.6039 25.3014 29.0166 26.5008 29.0166H32.1273C33.3268 29.0166 34.3517 29.6039 34.9624 30.648L37.7756 35.4986C38.3862 36.5427 38.3862 37.7173 37.7756 38.7614L34.9624 43.6121C34.3517 44.6561 33.3268 45.2434 32.1273 45.2434H26.5008C25.3014 45.2434 24.2764 44.6561 23.6658 43.6121L20.8525 38.7614C20.2419 37.7173 20.2419 36.5427 20.8525 35.4986Z" fill="#16AC59"/>
<path fill-rule="evenodd" clip-rule="evenodd" d="M4.69651 100.733L6.20128 98.1445C6.5284 97.6007 7.0736 97.2744 7.70604 97.2744H10.7156C11.348 97.2744 11.915 97.6007 12.2203 98.1445L13.7251 100.733C14.0522 101.277 14.0522 101.929 13.7251 102.473L12.2203 105.062C11.8932 105.605 11.348 105.932 10.7156 105.932H7.70604C7.0736 105.932 6.50659 105.605 6.20128 105.062L4.69651 102.473C4.36939 101.908 4.36939 101.277 4.69651 100.733Z" fill="#16AC59"/>
<path fill-rule="evenodd" clip-rule="evenodd" d="M2.35983 74.7825L4.62788 70.8454C5.10766 69.9971 5.95818 69.5186 6.91774 69.5186H11.4756C12.457 69.5186 13.2857 69.9971 13.7655 70.8454L16.0335 74.7825C16.5133 75.6308 16.5133 76.5879 16.0335 77.4144L13.7655 81.3515C13.2857 82.1998 12.4352 82.6784 11.4756 82.6784H6.91774C5.93637 82.6784 5.10766 82.1998 4.62788 81.3515L2.35983 77.4144C1.88006 76.5661 1.88006 75.609 2.35983 74.7825Z" fill="#16AC59"/>
<path fill-rule="evenodd" clip-rule="evenodd" d="M4.69651 49.5288L6.20128 46.9404C6.5284 46.3966 7.0736 46.0703 7.70604 46.0703H10.7156C11.348 46.0703 11.915 46.3966 12.2203 46.9404L13.7251 49.5288C14.0522 50.0726 14.0522 50.7252 13.7251 51.269L12.2203 53.8574C11.8932 54.4012 11.348 54.7275 10.7156 54.7275H7.70604C7.0736 54.7275 6.50659 54.4012 6.20128 53.8574L4.69651 51.269C4.36939 50.7034 4.36939 50.0726 4.69651 49.5288Z" fill="#16AC59"/>
<path fill-rule="evenodd" clip-rule="evenodd" d="M107.95 124.572L104.46 118.547C103.719 117.263 102.432 116.524 100.949 116.524H93.9706C92.4876 116.524 91.2009 117.263 90.4595 118.547L86.9702 124.572C86.2287 125.855 86.2287 127.335 86.9702 128.618L90.4595 134.643C91.2009 135.927 92.4876 136.666 93.9706 136.666H100.949C102.432 136.666 103.719 135.927 104.46 134.643L107.95 128.618C108.691 127.335 108.691 125.855 107.95 124.572Z" fill="#16AC59"/>
<path fill-rule="evenodd" clip-rule="evenodd" d="M107.95 22.1658L104.46 16.1406C103.719 14.8572 102.432 14.1177 100.949 14.1177H93.9706C92.4876 14.1177 91.2009 14.8572 90.4595 16.1406L86.9702 22.1658C86.2287 23.4492 86.2287 24.9283 86.9702 26.2116L90.4595 32.2369C91.2009 33.5202 92.4876 34.2598 93.9706 34.2598H100.949C102.432 34.2598 103.719 33.5202 104.46 32.2369L107.95 26.2116C108.691 24.9283 108.691 23.4709 107.95 22.1658Z" fill="#16AC59"/>
<path fill-rule="evenodd" clip-rule="evenodd" d="M128.848 112.413L126.035 107.563C125.424 106.518 124.399 105.931 123.2 105.931H117.573C116.374 105.931 115.349 106.518 114.738 107.563L111.925 112.413C111.314 113.457 111.314 114.632 111.925 115.676L114.738 120.527C115.349 121.571 116.374 122.158 117.573 122.158H123.2C124.399 122.158 125.424 121.571 126.035 120.527L128.848 115.676C129.459 114.632 129.459 113.436 128.848 112.413Z" fill="#16AC59"/>
<path fill-rule="evenodd" clip-rule="evenodd" d="M129.411 86.5943L126.424 81.4174C125.791 80.308 124.679 79.6772 123.414 79.6772H117.417C116.13 79.6772 115.04 80.308 114.407 81.4174L111.42 86.5943C110.787 87.7036 110.787 88.9652 111.42 90.0746L114.407 95.2515C115.04 96.3608 116.152 96.9916 117.417 96.9916H123.414C124.701 96.9916 125.791 96.3608 126.424 95.2515L129.411 90.0746C130.044 88.9652 130.044 87.7036 129.411 86.5943Z" fill="#16AC59"/>
<path fill-rule="evenodd" clip-rule="evenodd" d="M129.411 61.1007L126.424 55.9237C125.791 54.8144 124.679 54.1836 123.414 54.1836H117.417C116.13 54.1836 115.04 54.8144 114.407 55.9237L111.42 61.1007C110.787 62.21 110.787 63.4716 111.42 64.5809L114.407 69.7579C115.04 70.8672 116.152 71.498 117.417 71.498H123.414C124.701 71.498 125.791 70.8672 126.424 69.7579L129.411 64.5809C130.044 63.4716 130.044 62.1882 129.411 61.1007Z" fill="#16AC59"/>
<path fill-rule="evenodd" clip-rule="evenodd" d="M128.848 35.4986L126.035 30.648C125.424 29.6039 124.399 29.0166 123.2 29.0166H117.573C116.374 29.0166 115.349 29.6039 114.738 30.648L111.925 35.4986C111.314 36.5427 111.314 37.7173 111.925 38.7614L114.738 43.6121C115.349 44.6561 116.374 45.2434 117.573 45.2434H123.2C124.399 45.2434 125.424 44.6561 126.035 43.6121L128.848 38.7614C129.459 37.7173 129.459 36.5427 128.848 35.4986Z" fill="#16AC59"/>
<path fill-rule="evenodd" clip-rule="evenodd" d="M145.01 100.733L143.505 98.1445C143.178 97.6007 142.633 97.2744 142.001 97.2744H138.991C138.359 97.2744 137.792 97.6007 137.486 98.1445L135.982 100.733C135.655 101.277 135.655 101.929 135.982 102.473L137.486 105.062C137.814 105.605 138.359 105.932 138.991 105.932H142.001C142.633 105.932 143.2 105.605 143.505 105.062L145.01 102.473C145.337 101.908 145.337 101.277 145.01 100.733Z" fill="#16AC59"/>
<path fill-rule="evenodd" clip-rule="evenodd" d="M147.336 74.7825L145.068 70.8454C144.588 69.9971 143.738 69.5186 142.778 69.5186H138.22C137.239 69.5186 136.41 69.9971 135.931 70.8454L133.663 74.7825C133.183 75.6308 133.183 76.5879 133.663 77.4144L135.931 81.3515C136.41 82.1998 137.261 82.6784 138.22 82.6784H142.778C143.76 82.6784 144.588 82.1998 145.068 81.3515L147.336 77.4144C147.838 76.5661 147.838 75.609 147.336 74.7825Z" fill="#16AC59"/>
<path fill-rule="evenodd" clip-rule="evenodd" d="M145.01 49.5288L143.505 46.9404C143.178 46.3966 142.633 46.0703 142.001 46.0703H138.991C138.359 46.0703 137.792 46.3966 137.486 46.9404L135.982 49.5288C135.655 50.0726 135.655 50.7252 135.982 51.269L137.486 53.8574C137.814 54.4012 138.359 54.7275 138.991 54.7275H142.001C142.633 54.7275 143.2 54.4012 143.505 53.8574L145.01 51.269C145.337 50.7034 145.337 50.0726 145.01 49.5288Z" fill="#16AC59"/>
<path fill-rule="evenodd" clip-rule="evenodd" d="M66.0201 88.6167L68.986 83.505C69.6184 82.4174 70.7088 81.7866 71.9737 81.7866H77.8837C79.1486 81.7866 80.239 82.4174 80.8714 83.505L83.8373 88.6167C84.4697 89.7043 84.4697 90.9659 83.8373 92.0534L80.8496 97.1433C80.2172 98.2309 79.1267 98.8617 77.8619 98.8617H71.9519C70.687 98.8617 69.5966 98.2309 68.9642 97.1433L65.9983 92.0317C65.3876 90.9441 65.3876 89.7043 66.0201 88.6167Z" fill="#16AC59"/>
<path fill-rule="evenodd" clip-rule="evenodd" d="M66.0201 57.9467L68.986 52.8351C69.6184 51.7475 70.7088 51.1167 71.9737 51.1167H77.8837C79.1486 51.1167 80.239 51.7475 80.8714 52.8351L83.8373 57.9467C84.4697 59.0343 84.4697 60.2959 83.8373 61.3835L80.8496 66.4734C80.2172 67.561 79.1267 68.1918 77.8619 68.1918H71.9519C70.687 68.1918 69.5966 67.561 68.9642 66.4734L65.9983 61.3618C65.3876 60.2742 65.3876 59.0343 66.0201 57.9467Z" fill="#16AC59"/>
</g>
<defs>
<clipPath id="clip0">
<rect width="150" height="150" fill="white"/>
</clipPath>
</defs>
</svg>
